<svg id="facebook-01" xmlns="http://www.w3.org/2000/svg" width="18" height="18" viewBox="0 0 18 18">
  <path id="Path_7821" data-name="Path 7821" d="M2,10.982A9,9,0,1,1,10.937,20,8.992,8.992,0,0,1,2,10.982Zm8.3,2.1H8.273a.7.7,0,0,1-.738-.684.686.686,0,0,1,.738-.7h2.043c0-.747-.009-1.458,0-2.169A2.694,2.694,0,0,1,12.6,6.9a15.889,15.889,0,0,1,1.854-.054.679.679,0,0,1,.7.693.672.672,0,0,1-.7.684h-1.3A1.382,1.382,0,0,0,11.7,9.677v1.818c0,.063.009.126.009.2h2.07a.689.689,0,0,1,.009,1.377c-.36.009-.72,0-1.08,0h-1v5.481a7.673,7.673,0,1,0-1.4-.009Q10.293,15.842,10.3,13.079Z" transform="translate(-2 -2)" fill="#5f6c7b"/>
</svg>
