<svg id="in-01" xmlns="http://www.w3.org/2000/svg" width="18" height="18" viewBox="0 0 18 18">
  <path id="Path_7822" data-name="Path 7822" d="M11.009,2A9,9,0,1,1,2,10.973,9,9,0,0,1,11.009,2ZM11,19.118A8.118,8.118,0,1,0,2.882,11,8.137,8.137,0,0,0,11,19.118Z" transform="translate(-2 -2)" fill="#5f6c7b"/>
  <path id="Path_7823" data-name="Path 7823" d="M16.455,15.3H14.376V12.412a2.928,2.928,0,0,0-.027-.4.634.634,0,0,0-.54-.621.7.7,0,0,0-.846.441,3.351,3.351,0,0,0-.144.891c-.018.774-.009,1.557-.009,2.331v.234H10.74V9.874h1.926v.81c.108-.1.2-.18.288-.261a2.237,2.237,0,0,1,2.295-.6,1.534,1.534,0,0,1,1.17,1.359,4.072,4.072,0,0,1,.054.666c.009,1.1,0,2.2,0,3.294A.734.734,0,0,0,16.455,15.3Z" transform="translate(-2.874 -2.773)" fill="#5f6c7b"/>
  <path id="Path_7824" data-name="Path 7824" d="M8.982,15.317H6.93V9.89H8.982Z" transform="translate(-2.493 -2.789)" fill="#5f6c7b"/>
  <path id="Path_7825" data-name="Path 7825" d="M8.985,7.751A1.008,1.008,0,0,1,7.869,8.7a1,1,0,0,1-.99-1.035A1.057,1.057,0,0,1,8.13,6.788.98.98,0,0,1,8.985,7.751Z" transform="translate(-2.487 -2.477)" fill="#5f6c7b"/>
</svg>
