<svg id="twitter-01" xmlns="http://www.w3.org/2000/svg" width="18" height="18" viewBox="0 0 18 18">
  <path id="Path_7826" data-name="Path 7826" d="M11.009,2A9,9,0,1,1,2,10.982,9.005,9.005,0,0,1,11.009,2Zm0,17.118A8.113,8.113,0,1,0,2.882,11,8.137,8.137,0,0,0,11.009,19.118Z" transform="translate(-2 -2)" fill="#5f6c7b"/>
  <path id="Path_7827" data-name="Path 7827" d="M16.349,7.573a2.336,2.336,0,0,1-.783,1.008c.342-.081.675-.171,1.053-.261a2.68,2.68,0,0,1-.81.945.4.4,0,0,0-.189.387,6.11,6.11,0,0,1-4.707,6.012,6.264,6.264,0,0,1-4.266-.54,2.586,2.586,0,0,1-.387-.252,4.411,4.411,0,0,0,3.033-.891A2.278,2.278,0,0,1,7.349,12.46h.828l.027-.054a2.291,2.291,0,0,1-1.638-2.088l.756.225a.837.837,0,0,0,.216,0,2.369,2.369,0,0,1-.873-1.3A2.359,2.359,0,0,1,6.9,7.663,7.546,7.546,0,0,0,8.915,9.238a5.543,5.543,0,0,0,2.43.666,5.149,5.149,0,0,1,.009-.837,2.136,2.136,0,0,1,3.555-1.251.337.337,0,0,0,.333.1C15.6,7.8,15.98,7.69,16.349,7.573Z" transform="translate(-2.426 -2.524)" fill="#5f6c7b"/>
</svg>
