<svg id="facebook-01" xmlns="http://www.w3.org/2000/svg" width="24" height="24" viewBox="0 0 24 24">
  <path id="Path_5372" data-name="Path 5372" d="M2,13.976A12,12,0,1,1,13.916,26,11.989,11.989,0,0,1,2,13.976Zm11.064,2.8h-2.7a.93.93,0,0,1-.984-.912.914.914,0,0,1,.984-.936h2.724c0-1-.012-1.944,0-2.892A3.593,3.593,0,0,1,16.136,8.54a21.186,21.186,0,0,1,2.472-.072.905.905,0,0,1,.936.924.9.9,0,0,1-.936.912H16.88a1.842,1.842,0,0,0-1.944,1.932V14.66c0,.084.012.168.012.264h2.76a.918.918,0,0,1,.012,1.836c-.48.012-.96,0-1.44,0H14.948v7.308a10.231,10.231,0,1,0-1.872-.012Q13.058,20.456,13.064,16.772Z" transform="translate(-2 -2)"/>
</svg>
