<svg id="in-01" xmlns="http://www.w3.org/2000/svg" width="24" height="24" viewBox="0 0 24 24">
  <path id="Path_5373" data-name="Path 5373" d="M14.012,2A12,12,0,1,1,2,13.964,11.994,11.994,0,0,1,14.012,2ZM14,24.824A10.824,10.824,0,1,0,3.176,14,10.85,10.85,0,0,0,14,24.824Z" transform="translate(-2 -2)"/>
  <path id="Path_5374" data-name="Path 5374" d="M18.36,17.158H15.588V13.306a3.9,3.9,0,0,0-.036-.528.845.845,0,0,0-.72-.828.937.937,0,0,0-1.128.588,4.468,4.468,0,0,0-.192,1.188c-.024,1.032-.012,2.076-.012,3.108v.312H10.74V9.922h2.568V11c.144-.132.264-.24.384-.348a2.983,2.983,0,0,1,3.06-.8,2.046,2.046,0,0,1,1.56,1.812,5.429,5.429,0,0,1,.072.888c.012,1.464,0,2.928,0,4.392A.979.979,0,0,0,18.36,17.158Z" transform="translate(-0.252 -0.454)"/>
  <path id="Path_5375" data-name="Path 5375" d="M9.666,17.126H6.93V9.89H9.666Z" transform="translate(-1.014 -0.422)"/>
  <path id="Path_5376" data-name="Path 5376" d="M9.689,8.078A1.344,1.344,0,0,1,8.2,9.338a1.339,1.339,0,0,1-1.32-1.38A1.409,1.409,0,0,1,8.549,6.794,1.307,1.307,0,0,1,9.689,8.078Z" transform="translate(-1.025 -1.046)"/>
</svg>
