<svg id="twitter-01" xmlns="http://www.w3.org/2000/svg" width="24" height="24" viewBox="0 0 24 24">
  <path id="Path_5377" data-name="Path 5377" d="M14.012,2A12,12,0,1,1,2,13.976,12.007,12.007,0,0,1,14.012,2Zm0,22.824A10.818,10.818,0,1,0,3.176,14,10.849,10.849,0,0,0,14.012,24.824Z" transform="translate(-2 -2)"/>
  <path id="Path_5378" data-name="Path 5378" d="M19.1,7.61a2.675,2.675,0,0,1-1,1.12c.435-.09.859-.19,1.34-.29a3.134,3.134,0,0,1-1.031,1.05.426.426,0,0,0-.241.43,7.022,7.022,0,0,1-5.99,6.68A9.014,9.014,0,0,1,6.752,16a3.376,3.376,0,0,1-.492-.28,6.2,6.2,0,0,0,3.859-.99,2.86,2.86,0,0,1-2.474-1.69H8.7l.034-.06a2.638,2.638,0,0,1-2.084-2.32l.962.25a1.219,1.219,0,0,0,.275,0A2.642,2.642,0,0,1,6.775,9.46a2.332,2.332,0,0,1,.3-1.75A9.54,9.54,0,0,0,9.638,9.46a7.855,7.855,0,0,0,3.092.74,5,5,0,0,1,.011-.93,2.357,2.357,0,0,1,1.821-1.89,2.876,2.876,0,0,1,2.7.5.47.47,0,0,0,.424.11C18.148,7.86,18.629,7.74,19.1,7.61Z" transform="translate(-1.26 -0.24)"/>
</svg>
