<svg xmlns="http://www.w3.org/2000/svg" width="169.174" height="28.713" viewBox="0 0 169.174 28.713">
  <g id="Group_4232" data-name="Group 4232" transform="translate(-375 -195)">
    <g id="logo" transform="translate(0.001 71.771)">
      <path id="Path_243" data-name="Path 243" d="M841.876,479.531h-5.463a7.375,7.375,0,0,1-7.367-7.367V455.987a1.71,1.71,0,1,0-3.421,0v16.56a10.417,10.417,0,0,0,10.405,10.4h5.846a1.71,1.71,0,0,0,0-3.421Z" transform="translate(-393.404 -331.048)" fill="#fbfbfb"/>
      <path id="Path_244" data-name="Path 244" d="M956.109,500.2h-.121a1.671,1.671,0,0,0-1.671,1.671v11.288c0,2.538-2.374,4.6-5.292,4.6-2.939,0-5.331-2.065-5.331-4.6l0-11.244v-.04a1.672,1.672,0,0,0-1.672-1.676h-.078a1.674,1.674,0,0,0-1.672,1.672v11.288c0,4.424,3.926,8.024,8.751,8.024,4.8,0,8.712-3.6,8.712-8.02V501.867A1.642,1.642,0,0,0,956.109,500.2Z" transform="translate(-488.85 -369.277)" fill="#fbfbfb"/>
      <path id="Path_245" data-name="Path 245" d="M1073.581,515.011l-.017-.013a1.7,1.7,0,0,0-2.376.341,5.919,5.919,0,0,1-5,2.229c-3.446,0-6.249-3.181-6.249-7.091s2.8-7.09,6.249-7.09a5.919,5.919,0,0,1,5,2.229,1.7,1.7,0,0,0,2.376.34l.017-.012a1.7,1.7,0,0,0,.329-2.4,9.647,9.647,0,0,0-14.593-.481,11.216,11.216,0,0,0,0,14.82,9.647,9.647,0,0,0,14.593-.481,1.7,1.7,0,0,0-.329-2.4Z" transform="translate(-585.625 -369.088)" fill="#fbfbfb"/>
      <path id="Path_246" data-name="Path 246" d="M1180.919,499.966a9.348,9.348,0,0,0-6.937,3.1,11.187,11.187,0,0,0,0,14.826,9.339,9.339,0,0,0,6.927,3.1h.117a9.732,9.732,0,0,0,8.056-3.915,1.713,1.713,0,0,0-2.7-2.11,6.476,6.476,0,0,1-5.359,2.6h-.106a6.41,6.41,0,0,1-6.144-5.38h14.563a1.329,1.329,0,0,0,1.328-1.328v-.382a10.876,10.876,0,0,0-2.824-7.415A9.349,9.349,0,0,0,1180.919,499.966Zm-6.144,8.8a6.41,6.41,0,0,1,6.144-5.38,6.488,6.488,0,0,1,6.2,5.38Z" transform="translate(-681.072 -369.088)" fill="#fbfbfb"/>
      <path id="Path_247" data-name="Path 247" d="M1312.7,499.966a8.315,8.315,0,0,0-5.177,1.8v-.095a1.71,1.71,0,0,0-3.421,0v17.6a1.71,1.71,0,1,0,3.421,0V508.985a5.193,5.193,0,1,1,10.354,0v10.343a1.715,1.715,0,0,0,.53,1.2,1.691,1.691,0,0,0,2.889-1.19V508.985A8.826,8.826,0,0,0,1312.7,499.966Z" transform="translate(-791.732 -369.088)" fill="#fbfbfb"/>
      <path id="Path_248" data-name="Path 248" d="M1429.641,495.7c-3.645,0-4.089-1.56-4.106-2.728V481.516h4.106a1.71,1.71,0,1,0,0-3.421h-4.106v-2.69a1.71,1.71,0,1,0-3.421,0v2.69h-1.657a1.71,1.71,0,0,0,0,3.421h1.657v11.469c.049,3.9,2.792,6.133,7.526,6.133a1.71,1.71,0,1,0,0-3.421Z" transform="translate(-887.178 -347.215)" fill="#fbfbfb"/>
      <path id="Path_249" data-name="Path 249" d="M500.771,454.277a1.726,1.726,0,0,0-1.725,1.72l0,16.051a7.472,7.472,0,0,1-7.463,7.463h-5.862a1.72,1.72,0,0,0,0,3.441h6.249a10.529,10.529,0,0,0,10.517-10.517V456A1.722,1.722,0,0,0,500.771,454.277Z" transform="translate(-109.006 -331.048)" fill="#fcfcfc"/>
      <path id="Path_250" data-name="Path 250" d="M677.183,457.2a1.69,1.69,0,0,0-1.161-2.922h-.033a1.664,1.664,0,0,0-1.183.482L662.22,466.8l-.392.391a2.035,2.035,0,0,0-.615,1.341,1.939,1.939,0,0,0,.57,1.464l.437.436,12.571,12.024a1.714,1.714,0,0,0,1.213.5c.036,0,.073,0,.11,0a1.7,1.7,0,0,0,1.471-1.078,1.667,1.667,0,0,0-.412-1.85l-11.308-10.806a.83.83,0,0,1,0-1.2l11.3-10.8Z" transform="translate(-256.529 -331.048)" fill="#fcfcfc"/>
      <path id="Path_251" data-name="Path 251" d="M630.871,454.277A1.723,1.723,0,0,0,629.15,456v25.235a1.721,1.721,0,0,0,3.442,0V456A1.723,1.723,0,0,0,630.871,454.277Z" transform="translate(-229.838 -331.048)" fill="#fcfcfc"/>
    </g>
  </g>
</svg>
